# xmcd
#
# Track frame offsets:
#	150
#	12065
#	24213
#	38219
#	53598
#	64522
#	77241
#	91068
#	106896
#	119836
#	130533
#	152877
#	162908
#	171385
#	185882
#	199220
#	213706
#	225931
#
# Disc length: 3196 seconds
#
# Revision: 0
# Processed by: cddbd v1.5.1PL2 Copyright (c) Steve Scherf et al.
# Submitted via: EasyCDDAExtractor 9.0.0.1
#
DISCID=e90c7a12
DTITLE=Dolly Parton - Both Sides Of Dolly Parton
DYEAR=1987
DGENRE=Country
TTITLE0=Jolene
TTITLE1=Bargain Store
TTITLE2=Coat Of Many Colours
TTITLE3=Applejack
TTITLE4=Shattered Image
TTITLE5=Living On Memories Of You
TTITLE6=My Tennessee Mountain Home
TTITLE7=Heartbraker
TTITLE8=Here You Come Again
TTITLE9=Love Is Like A Butterfly
TTITLE10=Light Of A Clear Blue Morning
TTITLE11=Travelling Man
TTITLE12=Randy
TTITLE13=Lonely Coming Down
TTITLE14=Joshua
TTITLE15=Sweet Music Man
TTITLE16=Higher And Higher
TTITLE17=The Seeker
EXTD=
EXTT0=
EXTT1=
EXTT2=
EXTT3=
EXTT4=
EXTT5=
EXTT6=
EXTT7=
EXTT8=
EXTT9=
EXTT10=
EXTT11=
EXTT12=
EXTT13=
EXTT14=
EXTT15=
EXTT16=
EXTT17=
PLAYORDER=
